#N canvas 529 50 640 640 10;
#X obj 20 20 cnv 10 600 600 empty empty empty 20 12 0 14 -228856 -66577
0;
#N canvas 0 23 562 110 macbookJuan 0;
#X obj 131 56 outlet;
#X text 109 56 USB;
#X obj 343 56 outlet;
#X text 279 56 HEADPHONES;
#X obj 61 26 inlet;
#X text 27 26 STROM;
#X obj 493 56 outlet;
#X text 423 56 THUNDERBOLT;
#X obj 211 56 outlet;
#X text 189 56 USB;
#X restore 296 172 pd macbookJuan;
#N canvas 0 159 410 110 macbookIsaac 0;
#X obj 61 26 inlet;
#X text 27 26 STROM;
#X obj 231 56 outlet;
#X text 209 56 USB;
#X obj 141 56 outlet;
#X text 119 56 USB;
#X restore 145 172 pd macbookIsaac;
#N canvas 547 465 280 82 sony-a58 0;
#X obj 124 42 inlet;
#X text 40 18 ----------STEREO-3.5----------;
#X text 102 42 MIC;
#X restore 145 428 pd sony-a58;
#N canvas 0 465 557 229 tascam-DR60Dii 0;
#X obj 76 43 inlet;
#X obj 206 43 inlet;
#X obj 336 43 inlet;
#X obj 466 43 inlet;
#X obj 146 163 outlet;
#X obj 406 163 outlet;
#X text 48 43 IN-1;
#X text 178 43 IN-2;
#X text 308 43 IN-3;
#X text 438 43 IN-4;
#X text 88 163 HI-STEREO;
#X text 342 163 LOW-STEREO;
#X text 73 18 ----------XLR/PLUG----------;
#X text 50 188 ----------STEREO-3.5----------;
#X text 310 188 ----------STEREO-3.5----------;
#X text 310 18 ----------STEREO-3.5----------;
#X connect 0 0 4 0;
#X connect 0 0 5 0;
#X connect 1 0 5 0;
#X connect 1 0 4 0;
#X connect 2 0 4 0;
#X connect 2 0 5 0;
#X connect 3 0 5 0;
#X connect 3 0 4 0;
#X restore 145 404 pd tascam-DR60Dii;
#N canvas 0 22 161 63 headphones 0;
#X obj 21 17 inlet;
#X restore 448 394 pd headphones;
#N canvas 0 22 161 63 headphones 0;
#X obj 21 17 inlet;
#X restore 350 310 pd headphones;
#N canvas 571 21 228 113 iPhone 0;
#X obj 98 54 outlet;
#X text 23 79 ----------STEREO-3.5----------;
#X obj 98 14 inlet;
#X text 40 15 LIGHTNING;
#X restore 323 252 pd iPhone;
#N canvas 0 439 460 98 proyector 0;
#X obj 95 23 inlet;
#X text 22 49 ----------VGA-or-HDMI?----------;
#X obj 305 23 inlet;
#X text 271 24 STROM;
#X restore 377 206 pd proyector;
#N canvas 0 22 288 189 um-one 0;
#X obj 43 38 inlet;
#X obj 193 124 outlet;
#X obj 193 38 inlet;
#X text 147 38 MIDI-IN;
#X text 141 124 MIDI-OUT;
#X text 113 14 ----------5-PIN----------;
#X text 113 149 ----------5-PIN----------;
#X text 21 39 USB;
#X restore 401 252 pd um-one;
#X text 38 416 DOCUMENTACIÓN ->;
#X text 467 252 <- MIDI COMMUNICATION;
#X obj 420 569 cnv 8 34 8 empty empty empty 8 12 0 14 -261889 -66577
0;
#X text 457 566 = PROVIDED BY LUMINARIA;
#N canvas 804 21 228 113 iPhone 0;
#X obj 98 54 outlet;
#X text 23 79 ----------STEREO-3.5----------;
#X obj 98 14 inlet;
#X text 40 15 LIGHTNING;
#X restore 195 326 pd iPhone;
#N canvas 0 294 214 119 usbHub 0;
#X obj 30 22 inlet;
#X obj 30 73 outlet;
#X obj 80 73 outlet;
#X obj 130 73 outlet;
#X connect 0 0 1 0;
#X connect 0 0 2 0;
#X connect 0 0 3 0;
#X restore 232 206 pd usbHub;
#N canvas 309 23 882 217 alesisi-o2- 0;
#X obj 203 134 outlet;
#X obj 323 134 outlet;
#X obj 733 134 outlet;
#X obj 203 48 inlet;
#X obj 323 48 inlet;
#X obj 733 48 inlet;
#X text 687 48 MIDI-IN;
#X text 681 134 MIDI-OUT;
#X text 283 134 MAIN-R;
#X text 163 134 MAIN-L;
#X text 151 48 MIC-IN-1;
#X text 271 48 MIC-IN-2;
#X obj 53 48 inlet;
#X text 31 48 USB;
#X text 193 24 ----------XLR/PLUG----------;
#X text 203 159 ----------PLUG----------;
#X obj 516 133 outlet;
#X text 452 133 HEADPHONES;
#X text 653 24 ----------5-PIN----------;
#X text 402 159 ----------STREREO-PLUG----------;
#X text 653 159 ----------5-PIN----------;
#X connect 3 0 0 0;
#X connect 3 0 16 0;
#X connect 4 0 1 0;
#X connect 4 0 16 0;
#X connect 12 0 0 0;
#X connect 12 0 1 0;
#X connect 12 0 16 0;
#X restore 296 286 pd alesisi-o2-;
#N canvas 310 263 881 322 yamaha-AG06-------------------------------------
0;
#X obj 156 243 outlet;
#X obj 276 243 outlet;
#X obj 396 243 outlet;
#X obj 516 243 outlet;
#X text 338 243 MONITOR-L;
#X text 458 243 MONITOR-R;
#X text 104 243 STEREO-L;
#X text 224 243 STEREO-R;
#X obj 626 43 inlet;
#X obj 746 43 inlet;
#X text 598 43 IN-5;
#X text 718 43 IN-6;
#X obj 156 43 inlet;
#X obj 276 43 inlet;
#X obj 396 43 inlet;
#X obj 516 43 inlet;
#X text 128 43 IN-1;
#X text 248 43 IN-2;
#X text 368 43 IN-3;
#X text 488 43 IN-4;
#X obj 46 43 inlet;
#X text 24 43 USB;
#N canvas 0 22 256 185 effects 0;
#X obj 40 29 inlet;
#X obj 40 130 outlet;
#X text 52 78 COMPRESSOR+REVERB;
#X obj 170 29 inlet;
#X obj 170 130 outlet;
#X connect 0 0 1 0;
#X connect 3 0 4 0;
#X restore 196 77 pd effects;
#X text 146 18 ----------XLR/PLUG----------;
#X text 396 18 ----------PLUG----------;
#X text 629 18 ----------RCA----------;
#X text 163 269 ----------PLUG----------;
#X text 402 269 ----------PLUG----------;
#X obj 746 243 outlet;
#X text 682 243 HEADPHONES;
#X text 632 269 ----------STREREO-PLUG----------;
#X connect 8 0 0 0;
#X connect 8 0 2 0;
#X connect 8 0 28 0;
#X connect 9 0 1 0;
#X connect 9 0 3 0;
#X connect 9 0 28 0;
#X connect 12 0 22 0;
#X connect 13 0 22 1;
#X connect 14 0 0 0;
#X connect 14 0 2 0;
#X connect 14 0 28 0;
#X connect 15 0 1 0;
#X connect 15 0 3 0;
#X connect 15 0 28 0;
#X connect 20 0 0 0;
#X connect 20 0 1 0;
#X connect 20 0 2 0;
#X connect 20 0 3 0;
#X connect 20 0 28 0;
#X connect 22 0 0 0;
#X connect 22 0 2 0;
#X connect 22 0 28 0;
#X connect 22 1 1 0;
#X connect 22 1 3 0;
#X connect 22 1 28 0;
#X restore 145 370 pd yamaha-AG06-------------------------------------
;
#N canvas 824 230 450 300 amplifier- 0;
#X obj 107 52 inlet;
#X obj 247 52 inlet;
#X obj 107 122 outlet;
#X obj 247 122 outlet;
#X connect 0 0 2 0;
#X connect 1 0 3 0;
#X restore 296 454 pd amplifier-;
#X obj 420 589 cnv 8 34 8 empty empty empty 8 12 0 14 -72677 -66577
0;
#X text 457 586 = AUDIOVISUAL OUTPUT;
#X obj 246 498 outlet;
#X obj 415 498 outlet;
#X text 188 499 SPEAKER-L;
#X text 357 499 SPEAKER-R;
#X obj 145 128 inlet;
#X text 111 128 STROM;
#X obj 296 128 inlet;
#X text 262 128 STROM;
#X obj 446 128 inlet;
#X text 412 128 STROM;
#X obj 446 120 cnv 8 34 8 empty empty empty 8 12 0 14 -261889 -66577
0;
#X obj 415 514 cnv 8 40 8 empty empty empty 8 12 0 14 -72677 -66577
0;
#X obj 246 514 cnv 8 40 8 empty empty empty 8 12 0 14 -72677 -66577
0;
#X obj 377 222 cnv 8 76 8 empty empty empty 8 12 0 14 -72677 -66577
0;
#X obj 296 120 cnv 8 34 8 empty empty empty 8 12 0 14 -261889 -66577
0;
#X obj 145 120 cnv 8 34 8 empty empty empty 8 12 0 14 -261889 -66577
0;
#X obj 21 30 cnv 15 260 38 empty empty empty 20 12 0 14 -203904 -66577
0;
#X text 38 36 PHAGES (JUAN FLORES + ISAAC MEDINA);
#X text 38 46 SIGNAL PATH FOR LUMINARIA 2019;
#X connect 1 0 16 0;
#X connect 1 1 7 0;
#X connect 1 3 8 0;
#X connect 2 0 17 0;
#X connect 2 1 15 0;
#X connect 4 0 3 0;
#X connect 7 0 16 1;
#X connect 7 0 16 2;
#X connect 9 0 16 3;
#X connect 14 0 17 1;
#X connect 14 0 17 2;
#X connect 15 1 14 0;
#X connect 15 2 9 0;
#X connect 16 0 17 3;
#X connect 16 1 17 4;
#X connect 16 2 6 0;
#X connect 16 3 9 1;
#X connect 17 0 4 0;
#X connect 17 1 4 1;
#X connect 17 2 18 0;
#X connect 17 3 18 1;
#X connect 17 4 5 0;
#X connect 18 0 21 0;
#X connect 18 1 22 0;
#X connect 25 0 2 0;
#X connect 27 0 1 0;
#X connect 29 0 8 1;
