#N canvas 424 36 640 640 10;
#X obj 20 20 cnv 10 600 600 empty empty empty 20 12 0 14 -228856 -66577
0;
#N canvas 0 159 410 110 macbookIsaac 0;
#X obj 61 26 inlet;
#X text 27 26 STROM;
#X obj 231 56 outlet;
#X text 209 56 USB;
#X obj 141 56 outlet;
#X text 119 56 USB;
#X restore 167 294 pd macbookIsaac;
#N canvas 547 465 280 82 sony-a58 0;
#X obj 124 42 inlet;
#X text 40 18 ----------STEREO-3.5----------;
#X text 102 42 MIC;
#X restore 161 400 pd sony-a58;
#N canvas 0 465 557 229 tascam-DR60Dii 0;
#X obj 76 43 inlet;
#X obj 206 43 inlet;
#X obj 336 43 inlet;
#X obj 466 43 inlet;
#X obj 146 163 outlet;
#X obj 406 163 outlet;
#X text 48 43 IN-1;
#X text 178 43 IN-2;
#X text 308 43 IN-3;
#X text 438 43 IN-4;
#X text 88 163 HI-STEREO;
#X text 342 163 LOW-STEREO;
#X text 73 18 ----------XLR/PLUG----------;
#X text 50 188 ----------STEREO-3.5----------;
#X text 310 188 ----------STEREO-3.5----------;
#X text 310 18 ----------STEREO-3.5----------;
#X connect 0 0 4 0;
#X connect 0 0 5 0;
#X connect 1 0 5 0;
#X connect 1 0 4 0;
#X connect 2 0 4 0;
#X connect 2 0 5 0;
#X connect 3 0 5 0;
#X connect 3 0 4 0;
#X restore 161 376 pd tascam-DR60Dii;
#N canvas 0 22 161 63 headphones 0;
#X obj 21 17 inlet;
#X restore 401 366 pd headphones;
#N canvas 0 22 161 63 headphones 0;
#X obj 21 17 inlet;
#X restore 359 272 pd headphones;
#N canvas 571 21 228 113 iPhone 0;
#X obj 98 54 outlet;
#X text 23 79 ----------STEREO-3.5----------;
#X obj 98 14 inlet;
#X text 40 15 LIGHTNING;
#X restore 316 214 pd iPhone;
#N canvas 0 439 460 98 proyector 0;
#X obj 95 23 inlet;
#X text 22 49 ----------VGA-or-HDMI?----------;
#X obj 305 23 inlet;
#X text 271 24 STROM;
#X restore 402 208 pd proyector;
#X text 61 375 DOCUMENTACIÓN ->;
#X text 441 291 <- MIDI COMMUNICATION;
#X obj 420 569 cnv 7 34 8 empty empty empty 8 12 0 14 -261889 -66577
0;
#X text 457 566 = PROVIDED BY LUMINARIA;
#X obj 420 589 cnv 7 34 8 empty empty empty 8 12 0 14 -72677 -66577
0;
#X text 457 586 = AUDIOVISUAL OUTPUT;
#X obj 257 510 outlet;
#X obj 376 510 outlet;
#X text 199 511 SPEAKER-L;
#X text 318 511 SPEAKER-R;
#X obj 167 120 inlet;
#X text 133 120 STROM;
#X obj 273 120 inlet;
#X text 239 120 STROM;
#X obj 471 120 inlet;
#X text 437 120 STROM;
#X obj 470 111 cnv 7 35 8 empty empty empty 8 12 0 14 -261889 -66577
0;
#X obj 375 526 cnv 7 41 8 empty empty empty 8 12 0 14 -72677 -66577
0;
#X obj 256 526 cnv 7 41 8 empty empty empty 8 12 0 14 -72677 -66577
0;
#X obj 401 224 cnv 7 77 8 empty empty empty 8 12 0 14 -72677 -66577
0;
#X obj 272 111 cnv 7 35 8 empty empty empty 8 12 0 14 -261889 -66577
0;
#X obj 166 111 cnv 7 35 8 empty empty empty 8 12 0 14 -261889 -66577
0;
#X obj 20 30 cnv 15 260 38 empty empty empty 20 12 0 14 -203904 -66577
0;
#X text 38 36 PHAGES (JUAN FLORES + ISAAC MEDINA);
#X text 38 46 SIGNAL PATH FOR LUMINARIA 2019;
#X obj 282 422 inlet;
#X text 248 422 STROM;
#X obj 281 413 cnv 7 35 8 empty empty empty 8 12 0 14 -261889 -66577
0;
#N canvas 0 22 288 189 um-one 0;
#X obj 43 38 inlet;
#X obj 193 124 outlet;
#X obj 193 38 inlet;
#X text 147 38 MIDI-IN;
#X text 141 124 MIDI-OUT;
#X text 113 14 ----------5-PIN----------;
#X text 113 149 ----------5-PIN----------;
#X text 21 39 USB;
#X restore 541 42 pd um-one;
#N canvas 804 21 228 113 iPhone 0;
#X obj 98 54 outlet;
#X text 23 79 ----------STEREO-3.5----------;
#X obj 98 14 inlet;
#X text 40 15 LIGHTNING;
#X restore 358 308 pd iPhone;
#N canvas 0 294 214 119 usbHub 0;
#X obj 30 22 inlet;
#X obj 30 73 outlet;
#X obj 80 73 outlet;
#X obj 130 73 outlet;
#X connect 0 0 1 0;
#X connect 0 0 2 0;
#X connect 0 0 3 0;
#X restore 540 66 pd usbHub;
#N canvas 309 23 882 217 alesisi-o2--------- 0;
#X obj 203 134 outlet;
#X obj 323 134 outlet;
#X obj 733 134 outlet;
#X obj 203 48 inlet;
#X obj 323 48 inlet;
#X obj 733 48 inlet;
#X text 687 48 MIDI-IN;
#X text 681 134 MIDI-OUT;
#X text 283 134 MAIN-R;
#X text 163 134 MAIN-L;
#X text 151 48 MIC-IN-1;
#X text 271 48 MIC-IN-2;
#X obj 53 48 inlet;
#X text 31 48 USB;
#X text 193 24 ----------XLR/PLUG----------;
#X text 203 159 ----------PLUG----------;
#X obj 516 133 outlet;
#X text 452 133 HEADPHONES;
#X text 653 24 ----------5-PIN----------;
#X text 402 159 ----------STREREO-PLUG----------;
#X text 653 159 ----------5-PIN----------;
#X connect 3 0 0 0;
#X connect 3 0 16 0;
#X connect 4 0 1 0;
#X connect 4 0 16 0;
#X connect 12 0 0 0;
#X connect 12 0 1 0;
#X connect 12 0 16 0;
#X restore 273 248 pd alesisi-o2---------;
#N canvas 0 23 562 110 macbookJuan-------- 0;
#X obj 131 56 outlet;
#X text 109 56 USB;
#X obj 343 56 outlet;
#X text 279 56 HEADPHONES;
#X obj 61 26 inlet;
#X text 27 26 STROM;
#X obj 493 56 outlet;
#X text 423 56 THUNDERBOLT;
#X obj 211 56 outlet;
#X text 189 56 USB;
#X restore 273 164 pd macbookJuan--------;
#N canvas 815 231 399 169 amplifier 0;
#X obj 176 43 inlet;
#X obj 296 43 inlet;
#X obj 176 113 outlet;
#X obj 296 113 outlet;
#X obj 66 43 inlet;
#X text 32 43 STROM;
#X text 148 43 IN-1;
#X text 268 43 IN-2;
#X text 176 18 ----------RCA----------;
#X connect 0 0 2 0;
#X connect 1 0 3 0;
#X restore 282 466 pd amplifier;
#N canvas 230 264 1007 322 zoom-U44------------------------- 0;
#X obj 156 243 outlet;
#X obj 276 243 outlet;
#X obj 396 243 outlet;
#X obj 516 243 outlet;
#X text 338 243 MONITOR-L;
#X text 458 243 MONITOR-R;
#X text 104 243 STEREO-L;
#X text 224 243 STEREO-R;
#X obj 156 43 inlet;
#X obj 276 43 inlet;
#X obj 396 43 inlet;
#X obj 516 43 inlet;
#X text 128 43 IN-1;
#X text 248 43 IN-2;
#X text 368 43 IN-3;
#X text 488 43 IN-4;
#X obj 46 43 inlet;
#X text 24 43 USB;
#X text 148 18 ----------XLR/PLUG----------;
#X obj 686 243 outlet;
#X text 622 243 HEADPHONES;
#X text 572 269 ----------STREREO-PLUG----------;
#X text 388 18 ----------XLR/PLUG----------;
#X text 404 269 ----------RCA----------;
#X text 150 269 ----------RCA/PLUG----------;
#X obj 876 43 inlet;
#X obj 876 243 outlet;
#X text 830 43 MIDI-IN;
#X text 824 244 MIDI-OUT;
#X text 796 19 ----------5-PIN----------;
#X text 796 269 ----------5-PIN----------;
#X connect 8 0 0 0;
#X connect 8 0 2 0;
#X connect 9 0 1 0;
#X connect 9 0 3 0;
#X connect 10 0 0 0;
#X connect 10 0 2 0;
#X connect 10 0 19 0;
#X connect 11 0 1 0;
#X connect 11 0 3 0;
#X connect 11 0 19 0;
#X connect 16 0 0 0;
#X connect 16 0 1 0;
#X connect 16 0 2 0;
#X connect 16 0 3 0;
#X connect 16 0 19 0;
#X connect 25 0 26 0;
#X restore 231 342 pd zoom-U44-------------------------;
#X connect 1 0 42 0;
#X connect 1 1 37 0;
#X connect 3 0 2 0;
#X connect 6 0 39 1;
#X connect 6 0 39 2;
#X connect 18 0 1 0;
#X connect 20 0 40 0;
#X connect 22 0 7 1;
#X connect 33 0 41 0;
#X connect 37 0 42 3;
#X connect 37 0 42 4;
#X connect 39 0 42 1;
#X connect 39 1 42 2;
#X connect 39 2 5 0;
#X connect 39 3 42 5;
#X connect 40 0 39 0;
#X connect 40 1 6 0;
#X connect 40 3 7 0;
#X connect 41 0 14 0;
#X connect 41 1 15 0;
#X connect 42 0 3 0;
#X connect 42 1 3 1;
#X connect 42 2 41 1;
#X connect 42 3 41 2;
#X connect 42 4 4 0;
